<?xml version="1.0" encoding="UTF-8"?>
<svg xmlns="http://www.w3.org/2000/svg" xmlns:xlink="http://www.w3.org/1999/xlink" viewBox="0 0 60 60" width="60px" height="60px">
<g id="surface6950078">
<path style=" stroke:none;fill-rule:nonzero;fill:rgb(30.980393%,67.450982%,99.607843%);fill-opacity:1;" d="M 28.292969 38.535156 C 27.917969 38.910156 27.410156 39.121094 26.878906 39.121094 C 26.351562 39.121094 25.839844 38.910156 25.464844 38.535156 L 18.558594 31.628906 C 17.777344 30.847656 17.777344 29.582031 18.558594 28.800781 C 19.34375 28.019531 20.605469 28.019531 21.386719 28.800781 L 26.878906 34.292969 L 51.347656 9.820312 C 50.636719 8.726562 49.402344 8 48 8 L 12 8 C 9.789062 8 8 9.789062 8 12 L 8 48 C 8 50.210938 9.789062 52 12 52 L 48 52 C 50.210938 52 52 50.210938 52 48 L 52 14.828125 Z M 28.292969 38.535156 "/>
</g>
</svg>
