<?xml version="1.0" encoding="UTF-8"?>
<svg xmlns="http://www.w3.org/2000/svg" xmlns:xlink="http://www.w3.org/1999/xlink" viewBox="0 0 48 48" width="48px" height="48px">
<g id="surface11023501">
<path style="fill-rule:nonzero;fill:rgb(0%,0%,0%);fill-opacity:1;stroke-width:6;stroke-linecap:butt;stroke-linejoin:round;stroke:rgb(100%,100%,100%);stroke-opacity:1;stroke-miterlimit:10;" d="M 91.100498 16.462212 C 91.114988 16.476702 91.129479 16.491192 91.143969 16.505682 L 163.376905 79.537433 C 164.289779 80.203975 164.840401 81.276239 164.840401 82.420954 C 164.840401 84.391602 163.232005 85.999998 161.246867 85.999998 L 143.337156 85.999998 L 143.337156 143.337156 C 143.337156 147.292941 140.120363 150.495244 136.164577 150.495244 L 107.503243 150.495244 C 103.547458 150.495244 100.330665 147.292941 100.330665 143.337156 L 100.330665 100.330665 L 71.669331 100.330665 L 71.669331 143.337156 C 71.669331 147.292941 68.452539 150.495244 64.496753 150.495244 L 35.835419 150.495244 C 31.879633 150.495244 28.662841 147.292941 28.662841 143.337156 L 28.662841 85.999998 L 10.75313 85.999998 C 8.767992 85.999998 7.159595 84.391602 7.159595 82.420954 C 7.159595 81.276239 7.710218 80.203975 8.623091 79.537433 L 80.899498 16.462212 C 82.247073 15.100147 84.087311 14.332174 85.999998 14.332174 C 87.912686 14.332174 89.752923 15.100147 91.100498 16.462212 Z M 91.100498 16.462212 " transform="matrix(0.269581,0,0,0.269581,0.816,0.816)"/>
<path style=" stroke:none;fill-rule:nonzero;fill:rgb(100%,100%,100%);fill-opacity:1;" d="M 24 4.679688 C 23.484375 4.679688 22.988281 4.886719 22.625 5.253906 L 3.140625 22.257812 C 2.894531 22.4375 2.746094 22.726562 2.746094 23.035156 C 2.746094 23.566406 3.179688 24 3.714844 24 L 8.542969 24 L 8.542969 39.457031 C 8.542969 40.523438 9.410156 41.386719 10.476562 41.386719 L 18.203125 41.386719 C 19.269531 41.386719 20.136719 40.523438 20.136719 39.457031 L 20.136719 27.863281 L 27.863281 27.863281 L 27.863281 39.457031 C 27.863281 40.523438 28.730469 41.386719 29.796875 41.386719 L 37.523438 41.386719 C 38.589844 41.386719 39.457031 40.523438 39.457031 39.457031 L 39.457031 24 L 44.285156 24 C 44.820312 24 45.253906 23.566406 45.253906 23.035156 C 45.253906 22.726562 45.105469 22.4375 44.859375 22.257812 L 25.386719 5.265625 C 25.382812 5.261719 25.378906 5.257812 25.375 5.253906 C 25.011719 4.886719 24.515625 4.679688 24 4.679688 Z M 24 4.679688 "/>
</g>
</svg>
