<?xml version="1.0" encoding="UTF-8"?>
<svg xmlns="http://www.w3.org/2000/svg" xmlns:xlink="http://www.w3.org/1999/xlink" viewBox="0 0 60 60" width="60px" height="60px">
<g id="surface11127414">
<path style=" stroke:none;fill-rule:nonzero;fill:rgb(100%,100%,100%);fill-opacity:1;" d="M 13.058594 5.03125 C 12.519531 5.023438 12 5.234375 11.617188 5.617188 C 10.835938 6.398438 10.835938 7.664062 11.617188 8.445312 C 12.398438 9.226562 13.664062 9.226562 14.445312 8.445312 C 15.226562 7.664062 15.226562 6.398438 14.445312 5.617188 C 14.078125 5.25 13.578125 5.039062 13.058594 5.03125 Z M 47 5.03125 C 46.457031 5.023438 45.9375 5.234375 45.554688 5.617188 C 44.773438 6.398438 44.773438 7.664062 45.554688 8.445312 C 46.335938 9.226562 47.601562 9.226562 48.382812 8.445312 C 49.164062 7.664062 49.164062 6.398438 48.382812 5.617188 C 48.015625 5.25 47.519531 5.039062 47 5.03125 Z M 30 6 C 20.058594 6 12 14.058594 12 24 C 12 34 20 38 24 46 L 36 46 C 40 38 48 34 48 24 C 48 14.058594 39.941406 6 30 6 Z M 30 12 L 30 22 L 38 22 L 30 36 L 30 26 L 22 26 Z M 6 22 C 4.894531 22 4 22.894531 4 24 C 4 25.105469 4.894531 26 6 26 C 7.105469 26 8 25.105469 8 24 C 8 22.894531 7.105469 22 6 22 Z M 54 22 C 52.894531 22 52 22.894531 52 24 C 52 25.105469 52.894531 26 54 26 C 55.105469 26 56 25.105469 56 24 C 56 22.894531 55.105469 22 54 22 Z M 13.058594 38.96875 C 12.515625 38.960938 11.996094 39.171875 11.613281 39.554688 C 10.832031 40.335938 10.832031 41.601562 11.613281 42.382812 C 11.988281 42.757812 12.496094 42.96875 13.027344 42.96875 C 13.5625 42.96875 14.070312 42.757812 14.445312 42.382812 C 15.226562 41.601562 15.226562 40.335938 14.445312 39.554688 C 14.078125 39.1875 13.578125 38.976562 13.058594 38.96875 Z M 46.996094 38.972656 C 46.457031 38.964844 45.9375 39.175781 45.554688 39.554688 C 45.179688 39.929688 44.96875 40.4375 44.96875 40.96875 C 44.96875 41.503906 45.179688 42.011719 45.554688 42.386719 C 46.335938 43.167969 47.601562 43.167969 48.382812 42.386719 C 48.757812 42.011719 48.96875 41.503906 48.96875 40.96875 C 48.96875 40.4375 48.757812 39.929688 48.382812 39.554688 C 48.015625 39.1875 47.515625 38.980469 46.996094 38.972656 Z M 24 50 L 24 52 C 24 54.210938 25.789062 56 28 56 C 28 57.105469 28.894531 58 30 58 C 31.105469 58 32 57.105469 32 56 C 34.210938 56 36 54.210938 36 52 L 36 50 Z M 24 50 "/>
</g>
</svg>
